<?xml version="1.0" encoding="UTF-8"?>
<svg width="1024px" height="709px" viewBox="0 0 1024 709" version="1.1" xmlns="http://www.w3.org/2000/svg" xmlns:xlink="http://www.w3.org/1999/xlink">
    <!-- Generator: Sketch 52.2 (67145) - http://www.bohemiancoding.com/sketch -->
    <title>Wordmark Large</title>
    <desc>Created with Sketch.</desc>
    <g id="Wordmark-Large" stroke="none" stroke-width="1" fill="none" fill-rule="evenodd">
        <g id="Group-29">
            <g id="Group-3" transform="translate(0.000000, 525.931908)" fill="#FF9E16">
                <path d="M66.768663,78.0923716 C75.166011,77.7882728 81.727558,70.7403361 81.4252376,62.3468118 C81.1368398,54.380616 74.7403757,47.9885786 66.768663,47.7023679 L53.3631381,47.7023679 L53.3631381,78.0923716 L66.768663,78.0923716 Z M64.4415912,1.59065533 C109.550983,1.59065533 136.620597,26.0557015 136.620597,62.8874319 C136.620597,99.7171748 109.550983,124.202097 64.4415912,124.202097 L53.8802652,124.202097 L53.8802652,175.682246 C53.7112044,177.822863 51.8694365,179.440748 49.7233591,179.337394 L3.59960221,179.337394 C1.66833149,179.1605 0.14678453,177.614168 -0.000397790055,175.682246 L-0.000397790055,5.46642427 C0.0513149171,3.45499957 1.59672928,1.79935058 3.59960221,1.61053107 L64.4415912,1.59065533 Z" id="Fill-1"></path>
            </g>
            <path d="M270.895425,658.9 C272.870453,658.81851 274.565039,660.29329 274.753989,662.259 L274.753989,701.612962 C274.56305,703.614449 272.906254,705.158793 270.895425,705.21047 L151.041282,705.21047 C149.231337,705.21047 147.421392,703.222897 146.924155,701.354577 L146.924155,531.140743 C146.72526,529.349939 148.018077,527.740004 149.808133,527.541247 C150.046807,527.515408 150.285481,527.515408 150.524155,527.541247 L267.872221,527.541247 C269.982497,527.457769 271.790453,529.03789 271.989348,531.140743 L271.989348,570.035575 C271.993326,572.164267 270.270895,573.895443 268.13874,573.899418 C268.049238,573.899418 267.959735,573.897431 267.872221,573.891468 L200.526365,573.891468 L200.526365,594.283976 L255.182718,594.283976 C256.877304,594.122982 258.38095,595.365216 258.544044,597.060616 C258.561945,597.253411 258.561945,597.448193 258.544044,597.644963 L254.944044,633.697564 C254.412994,635.677188 252.618961,637.054577 250.568354,637.056564 L200.526365,637.056564 L200.526365,658.919876 L270.895425,658.9 Z" id="Fill-4" fill="#FF9E16"></path>
            <path d="M437.151381,527.522166 C439.249724,527.488377 440.976133,529.159927 441.009945,531.256817 C441.009945,531.296569 441.009945,531.338308 441.009945,531.376072 L441.009945,701.613757 C440.934365,703.668908 439.209945,705.278843 437.151381,705.209278 L392.559116,705.209278 C390.321547,705.020458 388.310718,703.772262 387.149171,701.852266 L342.298343,621.792792 L342.298343,701.613757 C342.212818,703.664933 340.494365,705.266918 338.439779,705.209278 L292.81326,705.209278 C290.836243,705.179464 289.235138,703.589405 289.19337,701.613757 L289.19337,531.397935 C289.125746,529.340796 290.734807,527.61757 292.79337,527.542042 L337.385635,527.542042 C339.834033,527.510241 342.111381,528.792226 343.352486,530.901042 L387.845304,610.980391 L387.845304,531.477438 C387.897017,529.468001 389.442431,527.812352 391.445304,527.621545 L437.151381,527.522166 Z" id="Fill-6" fill="#FF9E16"></path>
            <g id="Group-10" transform="translate(455.469613, 521.956761)" fill="#FF9E16">
                <path d="M155.934497,74.3153851 C157.953282,74.367062 159.612066,75.9233323 159.791072,77.9327694 L159.791072,159.781059 C159.685657,162.184036 158.565878,164.429994 156.710188,165.962414 C141.234166,179.100277 117.525878,186.831939 92.785326,186.831939 C37.1146077,186.911442 0.00079558011,149.84319 0.00079558011,94.1911233 C0.00079558011,38.5390563 37.1146077,1.45092889 92.785326,1.45092889 C111.843448,1.50260581 130.53958,6.66632259 146.924552,16.397484 C148.738475,17.1547496 149.726983,19.1204601 149.251624,21.028531 L136.361238,58.8918123 C135.470188,60.6965293 133.367867,61.5491984 131.46842,60.8793861 C119.990188,54.9743043 107.266873,51.8796518 94.3565967,51.8558009 C70.6463204,51.8558009 54.5775912,68.8495571 54.5775912,94.0917446 C54.5775912,119.930204 70.4891934,136.844457 94.3565967,136.844457 C103.903558,136.844457 110.268199,135.035765 113.172066,131.955026 L113.172066,117.008471 L89.503558,117.008471 C87.1764862,117.008471 85.6430055,115.974932 85.384442,114.16624 L82.025105,78.6085445 C81.6710718,76.5633311 83.0434475,74.6194839 85.0900773,74.2696709 C85.4381436,74.2080561 85.7901878,74.1961307 86.1402431,74.2358821 L155.934497,74.3153851 Z" id="Fill-8"></path>
            </g>
            <g id="Group-13" transform="translate(630.497238, 525.931908)" fill="#FF9E16">
                <path d="M138.132994,1.59025781 C140.527691,1.56640693 142.484818,3.49037838 142.508685,5.88142969 L142.508685,5.96292021 L142.508685,113.291906 C142.508685,158.88685 118.024707,182.85699 71.3639337,182.85699 C25.2182983,182.85699 0.736309392,158.904738 0.21918232,113.291906 L0.21918232,5.96292021 C0.29078453,3.57783163 2.2081326,1.66181047 4.59487293,1.59025781 L48.9265856,1.59025781 C51.3232707,1.56640693 53.2823867,3.49037838 53.3042652,5.88142969 L53.3042652,5.96292021 L53.3042652,118.042208 C53.3042652,129.967651 60.0070276,136.844656 71.3440442,136.844656 C82.6810608,136.844656 89.5031602,129.967651 89.5031602,118.280717 L89.5031602,5.98279595 C89.5747624,3.59770737 91.4921105,1.68168621 93.8788508,1.61013355 L138.132994,1.59025781 Z" id="Fill-11"></path>
            </g>
            <path d="M839.337017,527.522166 C841.435359,527.488377 843.161768,529.159927 843.19558,531.256817 L843.19558,531.376072 L843.19558,701.613757 C843.108066,703.664933 841.389613,705.266918 839.337017,705.209278 L793.59116,705.209278 C791.679779,705.038347 790.164199,703.523815 789.99116,701.613757 L789.99116,531.397935 C790.042873,529.38651 791.588287,527.730861 793.59116,527.542042 L839.337017,527.522166 Z" id="Fill-14" fill="#FF9E16"></path>
            <path d="M1009.65063,527.522166 C1011.74897,527.488377 1013.47737,529.159927 1013.50919,531.256817 L1013.50919,531.376072 L1013.50919,701.613757 C1013.43361,703.668908 1011.70919,705.278843 1009.65063,705.209278 L965.038475,705.209278 C962.800906,705.020458 960.792066,703.772262 959.630519,701.852266 L914.777702,621.731177 L914.777702,701.613757 C914.692177,703.664933 912.973724,705.266918 910.919138,705.209278 L865.193171,705.209278 C863.22411,705.169526 861.634939,703.581455 861.59516,701.613757 L861.59516,531.397935 C861.525547,529.340796 863.136597,527.61757 865.193171,527.542042 L909.785436,527.542042 C912.233834,527.510241 914.511182,528.792226 915.752287,530.901042 L960.344552,611.020142 L960.344552,531.517189 C960.396265,529.505765 961.94168,527.852103 963.946541,527.661296 L1009.65063,527.522166 Z" id="Fill-16" fill="#FF9E16"></path>
            <path d="M155.993768,399.005444 C155.993768,423.770614 146.446807,439.27369 120.928575,439.27369 L69.2158674,439.27369 C65.5363094,439.27369 62.552884,436.292329 62.552884,432.615317 L62.552884,277.127418 C62.5628287,273.454381 65.5402873,270.478983 69.2158674,270.469045 L114.384928,270.469045 C142.071116,270.469045 155.993768,289.072736 155.993768,319.641622 L155.993768,399.005444 Z M62.6523315,68.3327879 C62.6185193,64.6557763 65.5760884,61.6485771 69.2556464,61.6147884 L69.3153149,61.6147884 L118.760619,61.6147884 C144.994873,61.6147884 155.993768,78.5886688 155.993768,104.069365 L155.993768,176.198419 C155.993768,206.78718 139.883271,221.594605 112.236862,221.594605 L69.3153149,221.594605 C65.6357569,221.594605 62.6523315,218.613244 62.6523315,214.936233 L62.6523315,68.3327879 Z M179.721945,250.990822 C176.354652,249.535918 174.80526,245.628348 176.259182,242.263385 C176.849901,240.89991 177.878188,239.774943 179.184928,239.065379 C203.271116,226.484037 213.812552,202.354891 213.812552,166.67794 L213.812552,106.295448 C213.812552,39.3142101 180.71642,8.34781004 118.780508,8.34781004 L7.08106077,8.34781004 C3.40150276,8.34781004 0.418077348,11.3291708 0.418077348,15.0061823 L0.418077348,485.922047 C0.418077348,489.599059 3.40150276,492.58042 7.08106077,492.58042 L120.948464,492.58042 C182.884376,492.58042 218.247912,463.084824 218.247912,396.083711 L218.247912,324.729811 C218.247912,289.549754 207.070011,263.770922 179.721945,250.990822 Z" id="Fill-18" fill="#111820"></path>
            <path d="M605.874232,8.3480088 L561.419204,8.3480088 C557.741635,8.3480088 554.75821,11.3293695 554.75821,15.0063811 L554.75821,485.922246 C554.75821,489.599258 557.741635,492.580618 561.419204,492.580618 L734.797989,492.580618 C738.477547,492.580618 741.460972,489.599258 741.460972,485.922246 L741.460972,445.932261 C741.460972,442.255249 738.477547,439.273888 734.797989,439.273888 L619.200199,439.273888 C615.520641,439.273888 612.537215,436.292528 612.537215,432.615516 L612.537215,15.0063811 C612.537215,11.3293695 609.55379,8.3480088 605.874232,8.3480088" id="Fill-20" fill="#111820"></path>
            <path d="M853.438276,66.1061089 L999.228331,66.1061089 C1001.7006,66.1120717 1003.70944,64.11456 1003.71341,61.6440057 C1003.7154,60.9205289 1003.54236,60.2089774 1003.20623,59.5669911 C986.916729,27.8254372 956.127779,8.34721377 908.07474,8.34721377 L852.264796,8.34721377 L852.264796,66.1061223 L853.438276,66.1061089 Z" id="Fill-22" fill="#FF9E16"></path>
            <g id="Group-26" transform="translate(789.613260, 7.175141)" fill="#111820">
                <path d="M164.904265,368.47631 C164.904265,408.525923 150.981613,427.606631 114.464486,427.606631 L69.313326,427.606631 C65.6357569,427.606631 62.6523315,424.625271 62.6523315,420.948259 L62.6523315,116.670583 L114.365039,116.670583 C150.802608,116.670583 164.804818,137.202221 164.804818,177.987235 L164.904265,368.47631 Z M40.4158674,41.9378076 C33.8244862,41.9378076 28.4821657,36.5991843 28.4821657,30.0123647 C28.4821657,23.425545 33.8244862,18.0869218 40.4158674,18.0869218 C47.0072486,18.0869218 52.3495691,23.425545 52.3495691,30.0123647 C52.3495691,36.5991843 47.0072486,41.9378076 40.4158674,41.9378076 Z M117.348464,58.9315637 L62.6523315,58.9315637 L62.6523315,1.17266855 L58.1970829,1.17266855 C26.2764199,1.17266855 0.398187845,27.0310039 0.398187845,58.9315637 L0.398187845,478.746906 C0.398187845,482.423917 3.38161326,485.405278 7.06117127,485.405278 L117.348464,485.405278 C193.843492,485.405278 227.11863,439.154435 227.11863,367.800535 L227.11863,177.987235 C227.138519,106.633335 193.863381,58.9315637 117.348464,58.9315637 Z" id="Fill-24"></path>
            </g>
            <path d="M437.270917,389.564469 C437.270917,423.055087 419.270917,447.084855 383.56926,447.084855 C347.131691,447.084855 329.867602,423.055087 329.867602,389.564469 L329.867602,112.854441 C329.867602,80.0992249 347.131691,55.3340551 383.56926,55.3340551 C419.270917,55.3340551 437.270917,80.0992249 437.270917,112.854441 L437.270917,389.564469 Z M383.56926,0 C309.242188,0 272.188044,50.9613927 272.188044,119.413435 L272.188044,382.985599 C272.188044,452.153168 309.242188,502.399034 383.56926,502.399034 C457.896331,502.399034 494.950475,452.153168 494.950475,382.985599 L494.950475,119.413435 C494.950475,50.9613927 457.876442,0 383.56926,0 Z" id="Fill-27" fill="#111820"></path>
        </g>
    </g>
</svg>