<?xml version="1.0" encoding="utf-8"?>
<!-- Generator: Adobe Illustrator 15.0.0, SVG Export Plug-In . SVG Version: 6.00 Build 0)  -->
<!DOCTYPE svg PUBLIC "-//W3C//DTD SVG 1.1//EN" "http://www.w3.org/Graphics/SVG/1.1/DTD/svg11.dtd">
<svg version="1.1" id="Layer_1" xmlns="http://www.w3.org/2000/svg" xmlns:xlink="http://www.w3.org/1999/xlink" x="0px" y="0px"
	 width="84.873px" height="41.556px" viewBox="0 0 84.873 41.556" enable-background="new 0 0 84.873 41.556" xml:space="preserve">
<g>
	<defs>
		<rect id="SVGID_1_" width="84.873" height="41.556"/>
	</defs>
	<clipPath id="SVGID_2_">
		<use xlink:href="#SVGID_1_"  overflow="visible"/>
	</clipPath>
	<path clip-path="url(#SVGID_2_)" fill="#8EB975" d="M22.668,0c0,0,0.467,0.789,0.467,1.579c0,0.671-0.97,3.224-1.48,5.124h-8.991
		l-0.903,5.77h7.366l-1.036,3.986c-0.275,1.052-1.053,1.823-2.111,1.823h-5.127l-0.985,6.294h8.779c0,0,0.467,0.788,0.467,1.579
		c0,0.671-0.97,3.224-1.48,5.123H1.678C0.801,31.278,0,30.519,0,30.519L4.772,0H22.668z"/>
	<path clip-path="url(#SVGID_2_)" fill="#8EB975" d="M41.258,14.943c0,3.347-1.867,5.559-6.523,6.52l-4.886,1.008
		c0.377,2.104,1.7,3.133,3.893,3.133c2.693,0,4.494-2.031,4.494-2.031s1.373,0.765,1.373,2.338c0,2.791-4.275,5.815-9.251,5.815
		c-5.049,0-8.341-3.19-8.341-8.574c0-6.224,4.407-14.662,12.253-14.662C38.567,8.49,41.258,11.034,41.258,14.943z M33.001,18.16
		c1.043-0.33,1.355-1.187,1.355-2.172c0-0.927-0.304-2.31-1.375-2.31c-1.938,0-2.792,3.127-3.099,5.469L33.001,18.16z"/>
	<path clip-path="url(#SVGID_2_)" fill="#8EB975" d="M58.007,23.291c0,0,1.681,1.548,1.681,4.114c0,3.425-2.9,4.321-5.327,4.321
		c-3.167,0-5.469-1.511-7.877-2.325c-0.673,0.774-1.33,1.55-1.96,2.325c0,0-3.569-0.09-3.569-2.521
		c0-2.964,4.941-8.044,10.264-13.808c-0.614-0.111-1.201-0.188-1.734-0.188c-3.026,0-4.198,1.513-4.198,1.513
		s-1.554-1.79-1.426-4.121c0.177-3.229,3.251-4.111,5.66-4.111c2.56,0,4.436,0.987,6.281,1.796l1.5-1.796
		c0,0,3.603,0.11,3.603,2.551c0,2.86-4.785,7.854-9.952,13.425c1.093,0.309,2.109,0.556,3.121,0.556
		C56.753,25.022,58.007,23.291,58.007,23.291z"/>
	<path clip-path="url(#SVGID_2_)" fill="#8EB975" d="M81.62,29.754c-1.284,7.825-6.646,11.802-13.437,11.802
		c-4.334,0-7.568-2.279-7.568-4.915c0-1.742,1.447-2.547,1.447-2.547s1.474,1.341,4.38,1.341c2.727,0,6.422-1.162,7.07-5.273
		l0.507-3.206c-1.828,2.635-4.256,4.771-7.32,4.771c-3.444,0-4.979-2.817-4.071-8.547l0.98-6.199
		c0.603-3.797,0.771-6.896,0.771-6.896c2.448-0.452,5.68-1.594,6.812-1.594c0.877,0,1.691,0.729,1.691,0.729l-1.23,7.761
		l-1.134,7.16c-0.104,0.656,0.02,1.027,0.62,1.027c2.854,0,4.463-8.188,4.463-8.188c0.601-3.797,0.769-6.896,0.769-6.896
		c2.449-0.452,5.682-1.594,6.813-1.594c0.876,0,1.69,0.729,1.69,0.729l-1.229,7.761L81.62,29.754z"/>
</g>
</svg>
