<svg height="102" viewBox="0 0 449 102" width="449" xmlns="http://www.w3.org/2000/svg" xmlns:xlink="http://www.w3.org/1999/xlink"><mask id="a" fill="#fff"><path d="m0 .785h366.492v101.155h-366.492z" fill="#fff" fill-rule="evenodd"/></mask><g fill="none" fill-rule="evenodd"><g fill="#454849"><path d="m172.569 23.582c-3.513 0-6.441 2.854-6.441 6.367s2.928 6.365 6.441 6.365c3.511 0 6.439-2.852 6.439-6.365s-2.928-6.367-6.439-6.367"/><path d="m167.007 77.365h11.122v-36.001h-11.122z"/><path d="m205.179 55.413c-5.342-1.317-9.221-1.097-9.221-3.731 0-1.684 1.758-2.562 4.684-2.562 3.22 0 8.781 1.171 13.538 3.879v-9.586c-4.099-1.975-9.439-2.854-13.757-2.854-8.928 0-15.659 4.318-15.733 11.927 0 5.927 4.025 8.781 10.83 10.464 5.416 1.39 9.439 1.097 9.439 3.878 0 1.977-1.829 2.781-4.902 2.781-3.44 0-9.147-1.244-14.05-4.099v9.734c4.245 2.047 9.733 2.926 14.05 2.926 9.219 0 16.099-4.317 16.171-12.219 0-6.221-4.171-8.855-11.049-10.538"/><path d="m386.823 72.74c-6.553 0-11.796-4.472-11.796-11.565 0-7.092 5.243-11.564 11.796-11.564s11.795 4.472 11.795 11.564c0 7.093-5.242 11.565-11.795 11.565zm1.773-28.679c-2.236 0-5.32.462-7.324 1.619l-.154-.155 14.031-21.785h-7.541l-13.892 22.094c-2.929 4.703-5.165 9.02-5.165 15.341 0 10.64 7.941 17.115 18.272 17.115 10.33 0 18.271-6.475 18.271-17.115 0-10.176-7.016-17.114-16.498-17.114z"/><path d="m137.251 24.387h-11.635v52.978h34.83v-10.171h-23.195z"/><path d="m315.444 40.559c-4.537 0-8.342 1.902-11.123 4.171l-.147-.074v-3.292h-10.975v36.001h11.122v-24.22c1.976-1.537 4.682-3 7.536-3 1.538 0 2.855.438 3.805 1.537.879 1.024 1.245 2.341 1.245 5.048v20.635h11.123v-22.465c0-5.194-.953-8.34-3.147-10.682-2.269-2.342-5.634-3.659-9.439-3.659"/><path d="m236.985 30.095-11.123 1.902v9.367h-5.854v9.219h5.854v13.244c0 5.708 1.245 8.709 3.147 10.758 2.268 2.414 5.708 3.585 9.367 3.585 3.146 0 6.439-.879 8.122-1.976v-8.854c-1.463.732-3.513 1.465-5.342 1.465-3.366 0-4.171-2.636-4.171-6.147v-12.075h9.513v-9.219h-9.513z"/><path d="m429.068 72.74c-7.786 0-12.798-5.86-12.798-13.415s5.012-13.414 12.798-13.414c7.787 0 12.798 5.859 12.798 13.414s-5.011 13.415-12.798 13.415zm0-32.38c-11.101 0-19.274 7.709-19.274 18.965s8.173 18.965 19.274 18.965c11.102 0 19.274-7.709 19.274-18.965s-8.172-18.965-19.274-18.965z"/><path d="m262.564 55.267c.951-4.098 3.951-6.219 7.391-6.219 3.585 0 6.439 2.341 7.098 6.219zm7.537-14.708c-9.951 0-18.88 7.464-18.88 18.953 0 11.268 8.563 18.658 20.416 18.658 4.757 0 10.172-1.097 13.684-3.293v-9.293c-3.805 2.562-8.196 3.951-12.219 3.951-5.124 0-9.221-2.267-10.464-7.243h24.439c.146-.951.22-2.562.22-3.805 0-12.075-8.343-17.928-17.196-17.928z"/><path d="m351.478 63.219 13.787-21.837h-31.056v6.296h19.816l-12.359 19.955h4.088c6.707 0 13.8 2.544 13.8 10.561 0 6.322-4.934 10.717-11.102 10.717-5.621 0-8.734-1.995-10.629-7.037l-6.349 2.49c3.034 7.057 9.238 10.097 16.978 10.097 9.714 0 18.04-5.396 18.04-15.804 0-3.562-1.164-6.794-3.233-9.258-2.82-3.697-7.175-6.145-11.757-6.17z" mask="url(#a)"/></g><path d="m50.608 102v-16.771c18.657 0 33.837-15.179 33.837-33.837 0-18.657-15.18-33.836-33.837-33.836s-33.836 15.179-33.836 33.836h-16.771c0-13.517 5.264-26.225 14.822-35.784s22.267-14.823 35.785-14.823 26.226 5.264 35.785 14.823c9.558 9.559 14.822 22.267 14.822 35.784 0 13.518-5.264 26.226-14.822 35.786-9.559 9.558-22.267 14.822-35.785 14.822" fill="#e7792b" mask="url(#a)"/><path d="m43.771 102h-43.771v-43.771h16.771v27h27z" fill="#d72331" mask="url(#a)"/></g></svg>