<?xml version="1.0" encoding="UTF-8"?>
<svg width="449px" height="102px" viewBox="0 0 449 102" version="1.1" xmlns="http://www.w3.org/2000/svg" xmlns:xlink="http://www.w3.org/1999/xlink">
    <!-- Generator: Sketch 55 (78076) - https://sketchapp.com -->
    <title>L360_LOGO_CMYK_PRINT_HORIZONTAL</title>
    <desc>Created with Sketch.</desc>
    <defs>
        <polygon id="path-1" points="0 0.785 366.492 0.785 366.492 101.94 0 101.94"></polygon>
    </defs>
    <g id="L360_LOGO_CMYK_PRINT_HORIZONTAL" stroke="none" stroke-width="1" fill="none" fill-rule="evenodd">
        <path d="M172.569,23.582 C169.056,23.582 166.128,26.436 166.128,29.949 C166.128,33.462 169.056,36.314 172.569,36.314 C176.08,36.314 179.008,33.462 179.008,29.949 C179.008,26.436 176.08,23.582 172.569,23.582" id="Fill-1" fill="#454849"></path>
        <polygon id="Fill-2" fill="#454849" points="167.007 77.365 178.129 77.365 178.129 41.364 167.007 41.364"></polygon>
        <path d="M205.179,55.413 C199.837,54.096 195.958,54.316 195.958,51.682 C195.958,49.998 197.716,49.12 200.642,49.12 C203.862,49.12 209.423,50.291 214.18,52.999 L214.18,43.413 C210.081,41.438 204.741,40.559 200.423,40.559 C191.495,40.559 184.764,44.877 184.69,52.486 C184.69,58.413 188.715,61.267 195.52,62.95 C200.936,64.34 204.959,64.047 204.959,66.828 C204.959,68.805 203.13,69.609 200.057,69.609 C196.617,69.609 190.91,68.365 186.007,65.51 L186.007,75.244 C190.252,77.291 195.74,78.17 200.057,78.17 C209.276,78.17 216.156,73.853 216.228,65.951 C216.228,59.73 212.057,57.096 205.179,55.413" id="Fill-3" fill="#454849"></path>
        <path d="M386.823,72.74 C380.27,72.74 375.027,68.268 375.027,61.175 C375.027,54.083 380.27,49.611 386.823,49.611 C393.376,49.611 398.618,54.083 398.618,61.175 C398.618,68.268 393.376,72.74 386.823,72.74 Z M388.596,44.061 C386.36,44.061 383.276,44.523 381.272,45.68 L381.118,45.525 L395.149,23.74 L387.608,23.74 L373.716,45.834 C370.787,50.537 368.551,54.854 368.551,61.175 C368.551,71.815 376.492,78.29 386.823,78.29 C397.153,78.29 405.094,71.815 405.094,61.175 C405.094,50.999 398.078,44.061 388.596,44.061 L388.596,44.061 Z" id="Fill-4" fill="#454849"></path>
        <polyline id="Fill-5" fill="#454849" points="137.251 24.387 125.616 24.387 125.616 77.365 160.446 77.365 160.446 67.194 137.251 67.194 137.251 24.387"></polyline>
        <path d="M315.444,40.559 C310.907,40.559 307.102,42.461 304.321,44.73 L304.174,44.656 L304.174,41.364 L293.199,41.364 L293.199,77.365 L304.321,77.365 L304.321,53.145 C306.297,51.608 309.003,50.145 311.857,50.145 C313.395,50.145 314.712,50.583 315.662,51.682 C316.541,52.706 316.907,54.023 316.907,56.73 L316.907,77.365 L328.03,77.365 L328.03,54.9 C328.03,49.706 327.077,46.56 324.883,44.218 C322.614,41.876 319.249,40.559 315.444,40.559" id="Fill-6" fill="#454849"></path>
        <path d="M236.985,30.095 L225.862,31.997 L225.862,41.364 L220.008,41.364 L220.008,50.583 L225.862,50.583 L225.862,63.827 C225.862,69.535 227.107,72.536 229.009,74.585 C231.277,76.999 234.717,78.17 238.376,78.17 C241.522,78.17 244.815,77.291 246.498,76.194 L246.498,67.34 C245.035,68.072 242.985,68.805 241.156,68.805 C237.79,68.805 236.985,66.169 236.985,62.658 L236.985,50.583 L246.498,50.583 L246.498,41.364 L236.985,41.364 L236.985,30.095" id="Fill-7" fill="#454849"></path>
        <path d="M429.068,72.74 C421.282,72.74 416.27,66.88 416.27,59.325 C416.27,51.77 421.282,45.911 429.068,45.911 C436.855,45.911 441.866,51.77 441.866,59.325 C441.866,66.88 436.855,72.74 429.068,72.74 Z M429.068,40.36 C417.967,40.36 409.794,48.069 409.794,59.325 C409.794,70.581 417.967,78.29 429.068,78.29 C440.17,78.29 448.342,70.581 448.342,59.325 C448.342,48.069 440.17,40.36 429.068,40.36 L429.068,40.36 Z" id="Fill-8" fill="#454849"></path>
        <path d="M262.564,55.267 C263.515,51.169 266.515,49.048 269.955,49.048 C273.54,49.048 276.394,51.389 277.053,55.267 L262.564,55.267 Z M270.101,40.559 C260.15,40.559 251.221,48.023 251.221,59.512 C251.221,70.78 259.784,78.17 271.637,78.17 C276.394,78.17 281.809,77.073 285.321,74.877 L285.321,65.584 C281.516,68.146 277.125,69.535 273.102,69.535 C267.978,69.535 263.881,67.268 262.638,62.292 L287.077,62.292 C287.223,61.341 287.297,59.73 287.297,58.487 C287.297,46.412 278.954,40.559 270.101,40.559 L270.101,40.559 Z" id="Fill-9" fill="#454849"></path>
        <g id="Group-14">
            <mask id="mask-2" fill="white">
                <use xlink:href="#path-1"></use>
            </mask>
            <g id="Clip-11"></g>
            <path d="M351.478,63.219 L365.265,41.382 L334.209,41.382 L334.209,47.678 L354.025,47.678 L341.666,67.633 L345.754,67.633 C352.461,67.633 359.554,70.177 359.554,78.194 C359.554,84.516 354.62,88.911 348.452,88.911 C342.831,88.911 339.718,86.916 337.823,81.874 L331.474,84.364 C334.508,91.421 340.712,94.461 348.452,94.461 C358.166,94.461 366.492,89.065 366.492,78.657 C366.492,75.095 365.328,71.863 363.259,69.399 C360.439,65.702 356.084,63.254 351.502,63.229 L351.478,63.219" id="Fill-10" fill="#454849" mask="url(#mask-2)"></path>
            <path d="M50.608,102 L50.608,85.229 C69.265,85.229 84.445,70.05 84.445,51.392 C84.445,32.735 69.265,17.556 50.608,17.556 C31.951,17.556 16.772,32.735 16.772,51.392 L0.001,51.392 C0.001,37.875 5.265,25.167 14.823,15.608 C24.381,6.049 37.09,0.785 50.608,0.785 C64.126,0.785 76.834,6.049 86.393,15.608 C95.951,25.167 101.215,37.875 101.215,51.392 C101.215,64.91 95.951,77.618 86.393,87.178 C76.834,96.736 64.126,102 50.608,102" id="Fill-12" fill="#E7792B" mask="url(#mask-2)"></path>
            <polyline id="Fill-13" fill="#D72331" mask="url(#mask-2)" points="43.771 102 0 102 0 58.229 16.771 58.229 16.771 85.229 43.771 85.229 43.771 102"></polyline>
        </g>
    </g>
</svg>