<svg xmlns="http://www.w3.org/2000/svg" viewBox="0 0 360 360"><g id="Page-1" fill="none" fill-rule="evenodd"><path id="Combined-Shape" fill="#000000" fill-rule="nonzero" d="M180 360C80.59 360 0 279.41 0 180S80.59 0 180 0s180 80.59 180 180-80.59 180-180 180zm0-8c95 0 172-77 172-172S275 8 180 8 8 85 8 180s77 172 172 172zm79.22-251.18a8 8 0 1 1 11.3-11.31 8 8 0 0 1-11.3 11.31zm0 158.4a8 8 0 1 1 11.3 11.3 8 8 0 0 1-11.3-11.3zm-158.4 0a8 8 0 1 1-11.31 11.3 8 8 0 0 1 11.31-11.3zm0-158.4a8 8 0 1 1-11.31-11.31 8 8 0 0 1 11.31 11.31zm28.9 44.9l-17.6-33.6 33.6 17.6L180 20l34.29 109.72 33.6-17.6-17.6 33.6L340 180l-109.72 34.29 17.6 33.6-33.6-17.6L180 340l-34.29-109.72-33.6 17.6 17.6-33.6L20 180l109.72-34.29zm-4.5 58.78A59.79 59.79 0 0 1 120 180H46.82l78.4 24.5zm79.28 30.29A59.79 59.79 0 0 1 180 240v73.18l24.5-78.4zm30.29-79.29A59.79 59.79 0 0 1 240 180h73.18l-78.4-24.5zM180 120V46.82l-24.5 78.4A59.79 59.79 0 0 1 180 120zm0 112a52 52 0 1 0 0-104 52 52 0 0 0 0 104zm-3-85h30v60h-60v-30l30-30zm-22 33.31V199h44v-44h-18.69L155 180.31zM195 195l-13-23 13-13v36zm0 0h-36l13-13 23 13z"/></g></svg>